#N canvas 633 263 807 385 10;
#X obj 105 101 hradio 18 0 0 5 empty empty empty 0 -8 0 10 -262144
-1 -1 2;
#X text 438 229 label-color;
#X text 453 254 label-color;
#X obj 353 226 t b f;
#X msg 376 192 2;
#X obj 87 171 bang;
#X msg 339 192 43;
#X msg 381 313 \; \$4_opencnv color \$1 \$2 \$3;
#X obj 339 112 bang;
#X obj 380 280 pack 43 0 0 \$0;
#X obj 376 135 delay 200;
#X obj 80 322 outlet;
#X obj 556 276 pack s \$0;
#X msg 556 312 \; \$2_opencnv label \$1;
#X obj 556 202 symbol \$1;
#X obj 556 128 loadbang;
#X obj 101 101 cnv 15 98 18 empty \$0_opencnv hello 6 8 0 10 -66577
-262144 0;
#X obj 26 36 inlet;
#X connect 0 0 5 0;
#X connect 3 1 9 0;
#X connect 4 0 3 0;
#X connect 5 0 8 0;
#X connect 5 0 11 0;
#X connect 6 0 3 0;
#X connect 8 0 6 0;
#X connect 8 0 10 0;
#X connect 9 0 7 0;
#X connect 10 0 4 0;
#X connect 12 0 13 0;
#X connect 14 0 12 0;
#X connect 15 0 14 0;
#X connect 17 0 5 0;
#X coords 0 -1 1 1 100 20 2 100 100;
