#N canvas 455 259 985 561 10;
#X msg 358 63 \; \$3_slider vis_size \$2 \$1;
#X obj 132 -261 cnv 5 18 98 empty empty empty 20 12 0 14 -1375 -66577
0;
#X obj 132 -261 cnv 3 18 24 empty \$0_slider empty 20 12 0 14 -170864
-66577 0;
#X obj 264 81 outlet;
#X obj 291 -286 inlet;
#X floatatom 358 -182 5 0 100 0 - - -, f 5;
#X obj 358 -145 - 100;
#X obj 358 -106 * -1;
#X obj 358 24 pack 0 18 \$0;
#X obj 359 -214 clip 0 100;
#X connect 4 0 9 0;
#X connect 5 0 6 0;
#X connect 5 0 3 0;
#X connect 6 0 7 0;
#X connect 7 0 8 0;
#X connect 8 0 0 0;
#X connect 9 0 5 0;
#X coords 0 -1 1 1 20 100 2 131 -262;
