#N canvas 1686 119 648 337 10;
#X obj 101 101 bng 18 250 50 0 empty empty empty 17 7 0 10 -1 -258625
-1;
#X obj 120 101 bng 18 250 50 0 empty empty empty 17 7 0 10 -1 -258625
-1;
#X obj 139 101 bng 18 250 50 0 empty empty empty 17 7 0 10 -1 -258625
-1;
#X obj 158 101 bng 18 250 50 0 empty empty empty 17 7 0 10 -1 -258625
-1;
#X obj 177 101 bng 18 250 50 0 empty empty empty 17 7 0 10 -1 -258625
-1;
#X obj 196 101 bng 18 250 50 0 empty empty empty 17 7 0 10 -1 -258625
-1;
#X obj 215 101 bng 18 250 50 0 empty empty empty 17 7 0 10 -1 -258625
-1;
#X obj 234 101 bng 18 250 50 0 empty empty empty 17 7 0 10 -1 -258625
-1;
#X obj 110 46 sel 0 1 2 3 4 5 6 7;
#X obj 111 10 inlet;
#X connect 8 0 0 0;
#X connect 8 1 1 0;
#X connect 8 2 2 0;
#X connect 8 3 3 0;
#X connect 8 4 4 0;
#X connect 8 5 5 0;
#X connect 8 6 6 0;
#X connect 8 7 7 0;
#X connect 9 0 8 0;
#X coords 0 -1 1 1 153 20 1 100 100;
