#N canvas 867 417 573 366 10;
#X obj 336 25 loadbang;
#X obj 286 85 i 0;
#X obj 286 133 makefilename %d;
#X obj 286 159 symbol \$1;
#X obj 287 227 pack \$0 s;
#X obj 286 194 t b s;
#X msg 287 264 \; \$1_cnv label \$2;
#X obj 29 164 cnv 15 100 38 empty empty empty 88 17 0 20 -33289 -262144
0;
#X obj 63 171 cnv 15 30 22 empty \$0_cnv 0 5 9 0 22 -262144 -1 0;
#N canvas 402 246 1038 529 plus 0;
#X text 207 169 label-color;
#X text 195 191 label-color;
#X msg 145 132 2;
#X obj 296 75 loadbang;
#X obj 2 1 hradio 19 1 0 1 empty empty empty 0 -8 0 10 -262144 -1 -1
0;
#X obj 2 34 bang;
#X msg 108 132 43;
#X obj 1 1 cnv 15 20 20 empty \$0_pluscnv + 6 8 0 18 -66577 -262144
0;
#X obj 108 52 bang;
#X obj 122 191 pack 43 0 0 \$0;
#X obj 125 94 delay 200;
#X msg 123 224 \; \$4_pluscnv color \$1 \$2 \$3;
#X obj 2 96 s \$0_plusone;
#X obj 122 166 f;
#X connect 2 0 13 0;
#X connect 3 0 2 0;
#X connect 4 0 5 0;
#X connect 5 0 8 0;
#X connect 5 0 12 0;
#X connect 6 0 13 0;
#X connect 8 0 6 0;
#X connect 8 0 10 0;
#X connect 9 0 11 0;
#X connect 10 0 2 0;
#X connect 13 0 9 0;
#X coords 0 -1 1 1 22 22 2 0 0;
#X restore 94 172 pd plus;
#N canvas 402 246 1038 529 minus 0;
#X text 204 176 label-color;
#X text 219 201 label-color;
#X obj 119 173 t b f;
#X msg 142 139 2;
#X obj 293 82 loadbang;
#X obj 1 1 hradio 19 1 0 1 empty empty empty 0 -8 0 10 -262144 -1 -1
0;
#X obj 3 42 bang;
#X msg 105 139 43;
#X obj 1 1 cnv 15 20 20 empty \$0_minuscnv - 6 8 0 18 -66577 -262144
0;
#X obj 105 59 bang;
#X obj 147 206 pack 43 0 0 \$0;
#X obj 122 101 delay 200;
#X obj 3 84 s \$0_minusone;
#X msg 148 239 \; \$4_minuscnv color \$1 \$2 \$3;
#X connect 2 1 10 0;
#X connect 3 0 2 0;
#X connect 4 0 3 0;
#X connect 5 0 6 0;
#X connect 6 0 9 0;
#X connect 6 0 12 0;
#X connect 7 0 2 0;
#X connect 9 0 7 0;
#X connect 9 0 11 0;
#X connect 10 0 13 0;
#X connect 11 0 3 0;
#X coords 0 -1 1 1 22 22 2 0 0;
#X restore 40 171 pd minus;
#X obj 163 12 i 0;
#X obj 105 11 i 0;
#X obj 163 41 + 1;
#X obj 104 41 - 1;
#X obj 105 -61 r \$0_minusone;
#X obj 163 -36 r \$0_plusone;
#X obj 137 -96 inlet;
#X obj 108 133 outlet;
#X connect 0 0 1 0;
#X connect 1 0 2 0;
#X connect 1 0 11 1;
#X connect 1 0 12 1;
#X connect 1 0 18 0;
#X connect 2 0 3 0;
#X connect 3 0 5 0;
#X connect 4 0 6 0;
#X connect 5 0 4 0;
#X connect 5 1 4 1;
#X connect 11 0 13 0;
#X connect 12 0 14 0;
#X connect 13 0 1 0;
#X connect 14 0 1 0;
#X connect 15 0 12 0;
#X connect 16 0 11 0;
#X connect 17 0 1 0;
#X coords 0 -1 1 1 100 40 1 29 163;
